<svg width="654" height="460" viewBox="0 0 654 460" fill="none" xmlns="http://www.w3.org/2000/svg">
<path fill-rule="evenodd" clip-rule="evenodd" d="M537 418C601.617 418 654 365.617 654 301C654 236.383 601.617 184 537 184C472.383 184 420 236.383 420 301C420 365.617 472.383 418 537 418Z" fill="#E9F6CC"/>
<path fill-rule="evenodd" clip-rule="evenodd" d="M41.2939 199.621C67.0231 177.96 69.8367 139.35 47.5195 114.187C25.646 89.5252 27.8532 51.8136 52.4545 29.8717L64.2261 19.3725C90.7868 -4.31702 130.271 -6.28038 159.051 14.6574L234.248 69.3646C260.043 88.1305 291.417 97.6385 323.289 96.3484L331.014 96.0358C385.285 93.8391 435.238 125.501 456.414 175.518C474.926 219.242 468.217 269.573 438.898 306.922L428.572 320.077C398.985 357.768 353.959 380.084 306.048 380.802L119.013 383.609C82.2867 384.16 47.8203 365.925 27.6131 335.253L12.8182 312.796C-8.73788 280.076 -2.39411 236.402 27.58 211.167L41.2939 199.621Z" fill="#CCEFFC"/>
<path fill-rule="evenodd" clip-rule="evenodd" d="M313 447.602L327.662 449L328 423.398L313.337 422L313 447.602Z" fill="#F1B092"/>
<path fill-rule="evenodd" clip-rule="evenodd" d="M330 444.47C330 443.932 329.383 443.629 328.98 443.98C327.546 445.23 324.509 447.004 319.288 446.266C313.091 445.389 313.48 441 313.48 441L293.853 446.985L293.776 447.013C290.414 448.156 287.713 450.726 286.38 454.05L286 455H330V444.47Z" fill="#2F383D"/>
<path fill-rule="evenodd" clip-rule="evenodd" d="M286 458H330V455H286V458Z" fill="#0A090C"/>
<path fill-rule="evenodd" clip-rule="evenodd" d="M307 240.81L310.334 435.854L330.865 436L336 223L307 240.81Z" fill="#91D300"/>
<path fill-rule="evenodd" clip-rule="evenodd" d="M388 447.573L373.353 449L371 422.428L385.648 421L388 447.573Z" fill="#F1B092"/>
<path fill-rule="evenodd" clip-rule="evenodd" d="M370.714 240.51L390 436L368.889 435.987L340 216L370.714 240.51Z" fill="#91D300"/>
<path fill-rule="evenodd" clip-rule="evenodd" d="M372 444.47C372 443.932 372.619 443.629 373.02 443.98C374.454 445.23 377.49 447.004 382.712 446.266C388.907 445.389 388.519 441 388.519 441L408.146 446.985L408.222 447.013C411.584 448.156 414.286 450.726 415.618 454.05L416 455H372V444.47Z" fill="#2F383D"/>
<path fill-rule="evenodd" clip-rule="evenodd" d="M372 458H416V455H372V458Z" fill="#0A090C"/>
<path fill-rule="evenodd" clip-rule="evenodd" d="M367.466 206L371 240.228L307.101 241L307 206.777L367.466 206Z" fill="#91D300"/>
<path opacity="0.3" fill-rule="evenodd" clip-rule="evenodd" d="M327 241.644H353V240.356H327V241.644Z" fill="#139173"/>
<path opacity="0.3" fill-rule="evenodd" clip-rule="evenodd" d="M315.483 211.19C315.483 211.19 315.515 211.335 315.565 211.613C315.717 212.45 316.024 214.441 316.022 216.846C316.025 219.598 315.617 222.887 314.162 225.598C312.7 228.309 310.258 230.455 306 231.084L306.149 232C310.706 231.345 313.482 228.938 315.034 226.017C316.595 223.099 316.998 219.681 317 216.846C317 213.541 316.443 211.02 316.44 211L315.483 211.19Z" fill="#139173"/>
<path opacity="0.3" fill-rule="evenodd" clip-rule="evenodd" d="M357.002 210L357 210.013C357.002 210.287 357.017 215.139 358.486 220.007C359.223 222.441 360.323 224.886 362.005 226.765C363.682 228.646 365.982 229.947 368.982 230L369 229.055C366.286 228.997 364.292 227.866 362.74 226.145C360.417 223.563 359.199 219.613 358.594 216.265C357.985 212.919 357.975 210.182 357.975 210.013V210.006L357.002 210Z" fill="#139173"/>
<path opacity="0.3" fill-rule="evenodd" clip-rule="evenodd" d="M334 212.023L334.854 241L336 240.977L335.148 212" fill="#139173"/>
<path opacity="0.3" fill-rule="evenodd" clip-rule="evenodd" d="M341 212.023L341.852 241L343 240.977L342.146 212" fill="#139173"/>
<path fill-rule="evenodd" clip-rule="evenodd" d="M334.201 107.114L301.436 121.678C299.106 122.713 297.727 125.157 298.045 127.692L307.389 209.065C307.389 209.065 337.83 214.063 367.429 207.994L374.945 128.927C375.242 126.347 374.332 123.775 372.48 121.962L352.273 107L334.201 107.114Z" fill="#406266"/>
<path fill-rule="evenodd" clip-rule="evenodd" d="M329 110.067L345.584 117L353 108L329 110.067Z" fill="#E4AA8D"/>
<path fill-rule="evenodd" clip-rule="evenodd" d="M359.322 190C359.322 190 366.279 206.328 335.614 201.742L304 204L306.589 194.07L326.756 192.213L350.46 192.228L359.322 190Z" fill="#F1B092"/>
<path fill-rule="evenodd" clip-rule="evenodd" d="M298.704 122C298.704 122 289.237 126.157 272.16 173.828C272.16 173.828 265.714 192.168 268.87 195.684C274.042 201.444 299.559 210.266 328 203.635L324.805 188.791L296.896 183.207L310.944 146.992C310.944 146.992 321.198 123.595 298.704 122Z" fill="#406266"/>
<path fill-rule="evenodd" clip-rule="evenodd" d="M353.367 124.124C353.367 124.124 349.139 133.633 369.379 181.844C369.379 181.844 377.26 200.312 382.068 200.931C389.949 201.945 415.238 191.805 432 167.767L419.304 158.415L394.466 172.652L379.898 135.311C379.898 135.311 371.37 110.404 353.367 124.124Z" fill="#406266"/>
<path opacity="0.23" fill-rule="evenodd" clip-rule="evenodd" d="M283.677 187C286.526 183.978 289.942 183.229 292.689 183.226C294.051 183.226 295.241 183.414 296.086 183.602C296.508 183.697 296.842 183.79 297.071 183.86L297.33 183.943L297.413 183.972L297.844 184.134L312.012 147.183L311.575 147.01L311.987 147.236C312 147.201 314.993 141.604 315 135.504C315 133.149 314.547 130.708 313.274 128.506C312 126.303 309.905 124.361 306.704 123L306.342 123.879C309.387 125.178 311.296 126.972 312.466 128.99C313.635 131.008 314.063 133.27 314.064 135.504C314.064 138.396 313.341 141.227 312.612 143.328C312.248 144.377 311.884 145.246 311.612 145.849C311.476 146.151 311.363 146.386 311.284 146.545C311.206 146.705 311.164 146.783 311.164 146.783L311.15 146.81L297.138 183.352L297.574 183.525L297.736 183.078C297.703 183.066 295.583 182.274 292.689 182.273C289.784 182.27 286.064 183.085 283 186.341L283.677 187Z" fill="#A3AAB9"/>
<path opacity="0.23" fill-rule="evenodd" clip-rule="evenodd" d="M329 110.078L335.311 123.734C335.369 123.86 335.486 123.955 335.624 123.987C335.763 124.02 335.909 123.99 336.022 123.903L345.738 116.481L355.334 121.018C355.491 121.094 355.681 121.074 355.819 120.971C355.959 120.866 356.026 120.693 355.991 120.527L353.404 108L352.494 108.176L354.899 119.813L345.883 115.55C345.723 115.475 345.532 115.495 345.393 115.602L335.915 122.842L329.847 109.712L329 110.078Z" fill="#A3AAB9"/>
<path opacity="0.23" fill-rule="evenodd" clip-rule="evenodd" d="M346 121.007C346 121.01 346.044 125.949 346.268 131.753C346.493 137.565 346.892 144.219 347.626 147.745C348.336 151.136 349.204 159.983 349.884 167.938C350.225 171.919 350.522 175.685 350.732 178.455C350.943 181.225 351.067 182.994 351.069 183L352 182.933C352 182.931 351.497 175.827 350.815 167.856C350.131 159.88 349.272 151.066 348.54 147.551C347.832 144.168 347.423 137.501 347.201 131.717C347.089 128.823 347.022 126.142 346.983 124.187C346.944 122.23 346.934 121.003 346.934 121L346 121.007Z" fill="#A3AAB9"/>
<path opacity="0.23" fill-rule="evenodd" clip-rule="evenodd" d="M366 126.253C366 126.254 366.06 126.441 366.166 126.818C366.914 129.453 369.932 141.104 369.932 157.658C369.932 162.947 369.622 168.737 368.835 174.894L369.898 175C370.691 168.806 371 162.98 371 157.658C371 138.623 367.04 126.029 367.03 126L366 126.253Z" fill="#A3AAB9"/>
<path fill-rule="evenodd" clip-rule="evenodd" d="M318.83 193H369V187H318.83C317.267 187 316 188.343 316 189.998C316 191.657 317.267 193 318.83 193Z" fill="#9EA5AE"/>
<path fill-rule="evenodd" clip-rule="evenodd" d="M362 193H429.312C433.189 193 436.591 190.405 437.631 186.657L450.756 139.327C451.917 135.142 448.783 131 444.454 131H382.632C380.043 131 377.782 132.751 377.123 135.263L362 193Z" fill="#9EA5AE"/>
<path fill-rule="evenodd" clip-rule="evenodd" d="M403.632 162.001H403C403.001 165.866 406.135 169 410.001 169C413.866 169 416.999 165.866 417 162.001C416.999 158.135 413.866 155.001 410.001 155C406.135 155.001 403.001 158.135 403 162.001H404.263C404.263 160.413 404.903 158.983 405.943 157.943C406.983 156.903 408.415 156.263 410.001 156.263C411.587 156.263 413.017 156.903 414.057 157.943C415.097 158.983 415.737 160.413 415.737 162.001C415.737 163.587 415.097 165.017 414.057 166.057C413.017 167.098 411.587 167.739 410.001 167.739C408.415 167.739 406.983 167.098 405.943 166.057C404.903 165.017 404.263 163.587 404.263 162.001H403.632Z" fill="#FFFFFE"/>
<path fill-rule="evenodd" clip-rule="evenodd" d="M370.955 71.7454C371.373 75.3103 368.819 78.5372 365.255 78.9555C361.689 79.3721 358.461 76.8181 358.045 73.2531C357.628 69.6897 360.181 66.4612 363.746 66.0446C367.311 65.6279 370.54 68.1804 370.955 71.7454Z" fill="#C98271"/>
<path fill-rule="evenodd" clip-rule="evenodd" d="M367.457 58C367.457 58 374.143 64.6203 365.833 75L359 60.3696L367.457 58Z" fill="#5CB2D8"/>
<path fill-rule="evenodd" clip-rule="evenodd" d="M351.729 91.9904L331.698 78L328 85.996L328.379 110L352 108.107L351.729 91.9904Z" fill="#E4AA8D"/>
<path fill-rule="evenodd" clip-rule="evenodd" d="M352.873 103.883C352.873 103.883 333.602 107.003 335.081 81L341.625 84.7478L353 97.3821L352.873 103.883Z" fill="#C98271"/>
<path fill-rule="evenodd" clip-rule="evenodd" d="M352.878 97.8138L352.245 97.8854C342.861 98.958 334.365 92.3822 333.27 83.1972L331.03 64.4178C330.747 62.0406 332.484 59.8883 334.912 59.6105L357.274 57.0529C361.611 56.5574 365.538 59.5976 366.046 63.8435L367.883 79.2377C368.979 88.4241 362.26 96.7412 352.878 97.8138Z" fill="#E4AA8D"/>
<path fill-rule="evenodd" clip-rule="evenodd" d="M334.346 76.4376L337.05 64.6833C337.05 64.6833 365.149 64.5342 370.932 56.0143C376.486 47.832 369.711 37.4669 364.036 37.0193C359.602 36.6688 355.452 41.1778 352.389 43.3693C349.327 45.5623 341.23 44.9264 338.837 45.1017C336.443 45.2784 327.533 45.9635 325.857 56.95C325.857 56.95 308.36 63.6738 329.266 89C329.266 89 335.497 84.0955 334.346 76.4376Z" fill="#5CB2D8"/>
<path fill-rule="evenodd" clip-rule="evenodd" d="M323.096 51.8361C323.085 51.8883 323 52.3348 323 53.0329C323 53.8292 323.111 54.9563 323.593 56.1801C324.071 57.4006 324.937 58.7098 326.382 59.7974C326.833 60.1378 327.469 60.0396 327.802 59.5758C328.134 59.1119 328.039 58.4613 327.586 58.1193C326.453 57.2613 325.836 56.3051 325.476 55.398C325.118 54.4925 325.032 53.6297 325.032 53.0329C325.032 52.7717 325.048 52.5627 325.062 52.425L325.082 52.2746L325.087 52.2445L324.95 52.2192L325.087 52.2477V52.2445L324.95 52.2192L325.087 52.2477C325.198 51.6841 324.842 51.1348 324.292 51.0208C323.743 50.9068 323.207 51.2725 323.096 51.8361Z" fill="#5CB2D8"/>
<path fill-rule="evenodd" clip-rule="evenodd" d="M321.22 59.1153L321.257 59.1069C321.445 59.0552 322.39 58.8359 323.169 58.8387C323.559 58.8345 323.892 58.9043 324.006 58.9686L324.068 59.0119L324.084 59.1041C324.098 59.6113 324.537 60.0123 325.065 59.9997C325.595 59.9871 326.013 59.5666 326 59.058C325.992 58.6878 325.883 58.3161 325.677 58.0129C325.364 57.5505 324.894 57.299 324.463 57.1691C324.025 57.0363 323.588 57.0014 323.169 57C321.912 57.0056 320.739 57.3395 320.694 57.3479C320.186 57.4876 319.892 57.9962 320.037 58.4852C320.183 58.9728 320.713 59.255 321.22 59.1153Z" fill="#5CB2D8"/>
<path fill-rule="evenodd" clip-rule="evenodd" d="M339.235 64.0818C339.235 64.0818 343.03 75.1687 333.717 78.7741C327.4 81.2198 334.077 63 334.077 63L339.235 64.0818Z" fill="#5099C7"/>
<path fill-rule="evenodd" clip-rule="evenodd" d="M336.955 76.7453C337.372 80.3119 334.819 83.539 331.254 83.9557C327.689 84.3709 324.461 81.8198 324.045 78.2547C323.628 74.6881 326.181 71.461 329.746 71.0443C333.311 70.6291 336.539 73.1802 336.955 76.7453Z" fill="#E4AA8D"/>
<path fill-rule="evenodd" clip-rule="evenodd" d="M352.999 73.4418C353.03 74.2691 352.386 74.9673 351.559 74.9988C350.731 75.0318 350.034 74.387 350.001 73.5582C349.97 72.7309 350.614 72.0327 351.441 72.0012C352.269 71.9682 352.966 72.6146 352.999 73.4418Z" fill="#191B1F"/>
<path fill-rule="evenodd" clip-rule="evenodd" d="M363.999 72.4418C364.03 73.2691 363.386 73.9673 362.559 73.9988C361.731 74.0318 361.034 73.3854 361.001 72.5582C360.97 71.7309 361.614 71.0327 362.441 71.0012C363.269 70.9682 363.966 71.613 363.999 72.4418Z" fill="#191B1F"/>
<path fill-rule="evenodd" clip-rule="evenodd" d="M357.98 73.6882L358.946 79.7073L359.47 79.6041H358.938H359.045L358.938 79.598V79.6041H359.045L358.938 79.598C358.939 79.6334 358.91 79.9692 358.721 80.245C358.529 80.5146 358.209 80.8166 357.331 80.8274C357.123 80.8274 356.884 80.8073 356.612 80.7611C356.323 80.7118 356.051 80.9321 356.006 81.251C355.962 81.5715 356.161 81.8703 356.45 81.9196C356.77 81.9736 357.062 81.9998 357.331 81.9998C358.531 82.0136 359.296 81.4436 359.645 80.8289C360 80.2219 359.997 79.6657 360 79.6057L359.992 79.5024L359.026 73.4848C358.975 73.1659 358.699 72.9533 358.41 73.0088C358.122 73.0658 357.93 73.3693 357.98 73.6882Z" fill="#C98271"/>
<path fill-rule="evenodd" clip-rule="evenodd" d="M347.242 70L347.506 69.985L353.893 68.8902C354.605 68.7687 355.094 68.0266 354.985 67.2312C354.876 66.4392 354.212 65.8968 353.494 66.0166L347.107 67.1114C346.394 67.2346 345.906 67.9767 346.015 68.772C346.111 69.4642 346.634 69.9667 347.242 70Z" fill="#191B1F"/>
<path fill-rule="evenodd" clip-rule="evenodd" d="M360.334 68L360.618 67.9874L364.811 67.426C365.577 67.3241 366.102 66.7012 365.983 66.0351C365.866 65.3689 365.15 64.9123 364.383 65.0142L360.191 65.577C359.423 65.679 358.899 66.3018 359.016 66.968C359.119 67.5503 359.681 67.9721 360.334 68Z" fill="#191B1F"/>
<path fill-rule="evenodd" clip-rule="evenodd" d="M327.785 76.5772L327.82 76.5636C328.01 76.4849 328.938 76.1489 329.908 76.1519C330.592 76.1519 331.265 76.3093 331.786 76.7604C332.306 77.213 332.752 77.9985 332.872 79.4713C332.896 79.7877 333.169 80.0238 333.48 79.9981C333.792 79.9723 334.023 79.6954 333.998 79.379C333.87 77.7079 333.316 76.5697 332.516 75.8825C331.718 75.1953 330.752 74.9985 329.908 75C328.524 75.0045 327.383 75.5041 327.346 75.5177C327.058 75.6418 326.924 75.9793 327.044 76.2715C327.166 76.5651 327.497 76.7014 327.785 76.5772Z" fill="#C98271"/>
<path fill-rule="evenodd" clip-rule="evenodd" d="M331.385 75.0062C331.341 75.0155 330.792 75.0995 330.202 75.5291C329.611 75.9463 328.989 76.8039 329 78.1083C329 78.5488 329.065 79.0344 329.207 79.5729C329.29 79.8873 329.588 80.0679 329.874 79.9761C330.158 79.8858 330.322 79.5558 330.24 79.243C330.122 78.7947 330.076 78.4196 330.076 78.1083C330.086 77.2024 330.427 76.8039 330.799 76.5144C330.986 76.3774 331.181 76.2887 331.325 76.2389L331.495 76.1875L331.536 76.1782L331.543 76.1766L331.512 75.9634L331.54 76.1782L331.543 76.1766L331.512 75.9634L331.54 76.1782C331.834 76.1299 332.038 75.8295 331.994 75.5073C331.952 75.1836 331.679 74.9595 331.385 75.0062Z" fill="#C98271"/>
<path fill-rule="evenodd" clip-rule="evenodd" d="M351 85H362C362 85 361.705 89 356.36 89C351.485 89 351 85 351 85Z" fill="#FFFFFE"/>
<path fill-rule="evenodd" clip-rule="evenodd" d="M164.898 133.176C164.898 133.176 153.235 136.991 170.258 158.156C187.282 179.321 202.851 195 202.851 195L205 173.522C205 173.522 185.059 123.803 164.898 133.176Z" fill="#EBAF91"/>
<path fill-rule="evenodd" clip-rule="evenodd" d="M205.168 173.139L227.217 155L235 160.879C235 160.879 219.307 186.179 203 195L205.168 173.139Z" fill="#EBAF91"/>
<path fill-rule="evenodd" clip-rule="evenodd" d="M226.987 161.739C226.987 161.739 218.804 152.947 225.884 143.704L228.767 146.605L232.978 140.983C232.978 140.983 235.939 137.688 238.171 138.024C240.171 138.324 259.723 141.112 233.269 164L226.987 161.739Z" fill="#EBAF91"/>
<path fill-rule="evenodd" clip-rule="evenodd" d="M134 361L138.107 456H148.628L156 361H134Z" fill="#F1B092"/>
<path fill-rule="evenodd" clip-rule="evenodd" d="M147.511 446L155.817 455.382C155.817 455.382 156.214 457.772 155.839 460H140.499C137.749 460 135.642 457.627 136.051 454.989L137.446 446H147.511Z" fill="#F1B092"/>
<path fill-rule="evenodd" clip-rule="evenodd" d="M136.899 448C136.899 448 142.392 452.721 147.895 452.369C153.388 452.017 151.242 448.926 151.242 448.926C151.242 448.926 163.527 456.347 161.841 460H135.14C135.14 460 134.262 453.563 136.899 448Z" fill="#2F383D"/>
<path fill-rule="evenodd" clip-rule="evenodd" d="M165 361L169.109 456H179.629L187 361H165Z" fill="#F1B092"/>
<path fill-rule="evenodd" clip-rule="evenodd" d="M178.158 444L207 455.324L203.367 457H169V448.411L178.158 444Z" fill="#F1B092"/>
<path fill-rule="evenodd" clip-rule="evenodd" d="M169 449C169 449 175.646 458.111 191.963 449.864C191.963 449.864 206.875 453.563 210.718 457.993C211.348 458.718 210.854 459.862 209.903 459.862L170.686 460C169.756 460.005 169 459.235 169 458.287V449Z" fill="#2F383D"/>
<path fill-rule="evenodd" clip-rule="evenodd" d="M144.473 196.853C144.473 196.853 128.068 205.781 125.824 241.964C123.582 278.147 126.587 350.235 122 371.721C122 371.721 163.107 382.372 198 373.416V272.493C198 272.493 198 226.028 181.242 194L144.473 196.853Z" fill="#0097E6"/>
<path fill-rule="evenodd" clip-rule="evenodd" d="M169.619 118C169.619 118 182.292 126.25 179.634 135.037C176.975 143.823 160 130.271 160 130.271L169.619 118Z" fill="#3493C5"/>
<path fill-rule="evenodd" clip-rule="evenodd" d="M169.382 118L180.014 129.078C180.014 129.078 200.559 146.434 179.519 161.918C165.974 171.883 169.382 142.842 169.382 142.842V118Z" fill="#0097E6"/>
<path fill-rule="evenodd" clip-rule="evenodd" d="M157.592 116C156.527 117.482 133.023 124.07 133 140.075C132.974 158.343 143.946 177.591 143.926 197C143.926 197 182.237 194.172 181.999 194.165C181.76 194.159 179.246 170.106 181.999 157.232L170.04 118.675L157.592 116Z" fill="#0097E6"/>
<path fill-rule="evenodd" clip-rule="evenodd" d="M200.76 145.955C200.76 145.955 196.637 181.238 198.469 207L229.628 195.682C229.628 195.682 230.544 156.034 242 130C242 130 223.517 140.715 200.76 145.955Z" fill="white"/>
<path fill-rule="evenodd" clip-rule="evenodd" d="M144.33 128.357C144.33 128.357 131.958 123.856 129.148 146.801C125.804 174.083 124 195 124 195L141.552 182.118C141.552 182.118 160.816 133.644 144.33 128.357Z" fill="#EBAF91"/>
<path fill-rule="evenodd" clip-rule="evenodd" d="M141.458 182L190.024 190.494L191 199.97C191 199.97 141.506 200.737 124 194.534L141.458 182Z" fill="#EBAF91"/>
<path fill-rule="evenodd" clip-rule="evenodd" d="M185 193.887C185 193.887 185.882 181.816 197.629 181L197.465 185.123L204.545 184.553C204.545 184.553 209.033 184.595 210.325 186.508C211.481 188.225 222.903 204.893 187.656 200.156L185 193.887Z" fill="#EBAF91"/>
<path fill-rule="evenodd" clip-rule="evenodd" d="M148.864 63.4912C148.864 63.4912 111.612 37.6829 108.604 76.0543C106.538 102.406 88 95.7621 88 95.7621C88 95.7621 124.91 115.385 126.484 78.67C126.484 78.67 126.405 61.0898 149 66.737L148.864 63.4912Z" fill="#0C1C66"/>
<path fill-rule="evenodd" clip-rule="evenodd" d="M151 67C151 71.4179 147.419 75 143.001 75C138.581 75 135 71.4179 135 67C135 62.5821 138.581 59 143.001 59C147.419 59 151 62.5821 151 67Z" fill="#3493C5"/>
<path fill-rule="evenodd" clip-rule="evenodd" d="M188 85.9446C188.03 89.2587 185.368 91.9706 182.055 91.9997C178.741 92.0304 176.031 89.368 176 86.0554C175.971 82.7413 178.632 80.0294 181.945 80.0003C185.259 79.9696 187.969 82.6305 188 85.9446Z" fill="#CE8571"/>
<path fill-rule="evenodd" clip-rule="evenodd" d="M184 77.9993C184 91.8082 172.807 103 159.001 103C145.194 103 134 91.8082 134 77.9993C134 64.1918 145.194 53 159.001 53C172.807 53 184 64.1918 184 77.9993Z" fill="#0C1C66"/>
<path fill-rule="evenodd" clip-rule="evenodd" d="M152 121.357V97H170V121.357C170 126.589 165.97 129 161 129C156.03 129 152 126.589 152 121.357Z" fill="#EBAF91"/>
<path fill-rule="evenodd" clip-rule="evenodd" d="M150 93C150 93 152.027 115.293 169 113.941L168.982 102.774L150 93Z" fill="#CE8571"/>
<path fill-rule="evenodd" clip-rule="evenodd" d="M166.094 108.994L165.42 108.999C155.44 109.087 147.277 101.301 147.187 91.6094L147 71.7944C146.978 69.2859 149.051 67.2334 151.635 67.2104L175.417 67.0004C180.03 66.9586 183.804 70.5589 183.847 75.0394L183.999 91.2843C184.09 100.976 176.073 108.906 166.094 108.994Z" fill="#EBAF91"/>
<path fill-rule="evenodd" clip-rule="evenodd" d="M156.999 74C156.999 74 157.266 84.7466 150.252 85.9252C143.237 87.1023 147.017 74 147.017 74H156.999Z" fill="#191B1F"/>
<path fill-rule="evenodd" clip-rule="evenodd" d="M153 85.9439C153.03 89.2576 150.368 91.9691 147.055 91.9998C143.741 92.0289 141.031 89.3684 141 86.0547C140.971 82.741 143.633 80.0294 146.947 80.0003C150.26 79.9696 152.969 82.6317 153 85.9439Z" fill="#EBAF91"/>
<path fill-rule="evenodd" clip-rule="evenodd" d="M181 68.4612C181 68.4612 169.069 82.4988 150.877 78.1719C150.877 78.1719 143.925 77.4331 146.621 66.998C149.319 56.5629 177.921 55.6202 181 68.4612Z" fill="#0C1C66"/>
<path fill-rule="evenodd" clip-rule="evenodd" d="M178.215 67.6132C178.215 67.6132 184.484 69.0896 183.422 82C183.422 82 190.815 68.7022 186.812 62.2953C180.359 51.9707 168 59.9257 168 59.9257L178.215 67.6132Z" fill="#0C1C66"/>
<path fill-rule="evenodd" clip-rule="evenodd" d="M167.997 84.6026C167.939 85.4284 167.224 86.0523 166.398 85.9965C165.571 85.9408 164.948 85.225 165.003 84.3976C165.061 83.5703 165.776 82.9464 166.602 83.0036C167.429 83.0609 168.052 83.7752 167.997 84.6026Z" fill="#191B1F"/>
<path fill-rule="evenodd" clip-rule="evenodd" d="M179.996 83.6024C179.939 84.4297 179.223 85.0536 178.398 84.9964C177.57 84.9406 176.946 84.2248 177.004 83.3989C177.059 82.5716 177.775 81.9477 178.602 82.0035C179.428 82.0607 180.054 82.7766 179.996 83.6024Z" fill="#191B1F"/>
<path fill-rule="evenodd" clip-rule="evenodd" d="M174.272 86.6437L174.726 90.8998L175.363 90.8422L174.726 90.7802L174.884 90.7949L174.728 90.7743L174.726 90.7802L174.884 90.7949L174.728 90.7743C174.726 90.7994 174.663 91.0918 174.446 91.334C174.223 91.5717 173.893 91.8184 173.064 91.8272C172.729 91.8272 172.313 91.78 171.805 91.6559C171.463 91.5732 171.113 91.7593 171.021 92.0709C170.931 92.384 171.134 92.7059 171.476 92.7886C172.071 92.9333 172.597 92.9998 173.064 92.9998C174.294 93.0116 175.123 92.5006 175.524 91.972C175.934 91.4477 175.99 90.9633 176 90.9057V90.7861L175.545 86.5285C175.51 86.2065 175.197 85.9717 174.846 86.0028C174.494 86.0338 174.236 86.3217 174.272 86.6437Z" fill="#CE8571"/>
<path fill-rule="evenodd" clip-rule="evenodd" d="M162.215 79.9852L162.508 80L169.627 79.6952C170.42 79.6612 171.033 79.031 170.999 78.2853C170.962 77.5427 170.294 76.9701 169.492 77.0012L162.375 77.306C161.58 77.34 160.967 77.9702 161.001 78.7159C161.035 79.3653 161.553 79.8876 162.215 79.9852Z" fill="#191B1F"/>
<path fill-rule="evenodd" clip-rule="evenodd" d="M177.175 78.9831L177.458 79L181.669 78.806C182.44 78.7705 183.034 78.1145 182.999 77.3398C182.965 76.5652 182.31 75.9661 181.542 76.0015L177.331 76.1955C176.56 76.231 175.966 76.887 176.001 77.6601C176.032 78.3393 176.534 78.8814 177.175 78.9831Z" fill="#191B1F"/>
<path fill-rule="evenodd" clip-rule="evenodd" d="M166.222 97.8347C166.293 97.8813 168.116 99.0012 171.726 99C173.335 99 175.296 98.778 177.607 98.1487C177.909 98.0665 178.071 97.8016 177.97 97.5575C177.868 97.3134 177.54 97.1821 177.238 97.2643C175.035 97.8641 173.205 98.0678 171.726 98.0678C170.07 98.0678 168.857 97.8126 168.063 97.5648C167.665 97.441 167.374 97.3195 167.186 97.23L166.982 97.1269L166.938 97.1024L166.931 97.0975L166.821 97.2153L166.934 97.0987L166.931 97.0975L166.821 97.2153L166.934 97.0987C166.682 96.9405 166.319 96.9761 166.123 97.1797C165.926 97.3821 165.971 97.6752 166.222 97.8347Z" fill="#C98271"/>
<path fill-rule="evenodd" clip-rule="evenodd" d="M144.785 84.5784L144.819 84.5637C145.01 84.4858 145.938 84.1478 146.909 84.1507C147.591 84.1522 148.264 84.3094 148.786 84.7606C149.307 85.2118 149.751 85.998 149.873 87.4706C149.897 87.7866 150.17 88.0232 150.48 87.9982C150.792 87.9717 151.024 87.694 150.998 87.378C150.871 85.7085 150.316 84.5696 149.516 83.8818C148.718 83.1955 147.753 83 146.909 83C145.524 83.0044 144.382 83.5041 144.345 83.5173C144.058 83.6408 143.923 83.9788 144.045 84.2712C144.166 84.5651 144.498 84.7018 144.785 84.5784Z" fill="#C98271"/>
<path fill-rule="evenodd" clip-rule="evenodd" d="M148.385 83.0062C148.341 83.0167 147.793 83.1014 147.202 83.5307C146.61 83.9478 145.989 84.8064 146 86.1093C146 86.5491 146.065 87.0343 146.206 87.5739C146.29 87.8868 146.588 88.0682 146.874 87.976C147.158 87.8853 147.323 87.5573 147.24 87.2429C147.121 86.7955 147.076 86.4206 147.076 86.1093C147.087 85.2039 147.427 84.8048 147.798 84.5146C147.985 84.3771 148.18 84.2894 148.325 84.2395L148.494 84.1882L148.536 84.1791L148.542 84.1776L148.511 83.9629L148.54 84.1776H148.542L148.511 83.9629L148.54 84.1776C148.834 84.1307 149.037 83.8314 148.994 83.508C148.952 83.1845 148.678 82.9593 148.385 83.0062Z" fill="#C98271"/>
<path fill-rule="evenodd" clip-rule="evenodd" d="M152.034 119C152.034 119 168.918 124.616 171.752 134.676C174.587 144.734 152.162 134.094 152.162 134.094L149 123.079L152.034 119Z" fill="#0097E6"/>
<path fill-rule="evenodd" clip-rule="evenodd" d="M169.479 118C169.479 118 169.578 124.823 163.486 130.945C157.395 137.066 172 127.562 172 127.562L169.479 118Z" fill="#3493C5"/>
<path fill-rule="evenodd" clip-rule="evenodd" d="M598 447.601L583.337 449L583 423.399L597.663 422L598 447.601Z" fill="#F1B092"/>
<path fill-rule="evenodd" clip-rule="evenodd" d="M582 444.469C582 443.931 582.603 443.629 582.998 443.979C584.398 445.228 587.366 447.002 592.469 446.265C598.522 445.389 598.146 441 598.146 441L617.326 446.984L617.401 447.01C620.686 448.156 623.325 450.725 624.628 454.051L625 455H582V444.469Z" fill="#2F383D"/>
<path fill-rule="evenodd" clip-rule="evenodd" d="M582 458H625V455H582V458Z" fill="#0A090C"/>
<path fill-rule="evenodd" clip-rule="evenodd" d="M598.866 245.392L602 435.859L581.563 436L570 228L598.866 245.392Z" fill="#3594C5"/>
<path fill-rule="evenodd" clip-rule="evenodd" d="M541 447.624L555.938 449L557 423.378L542.063 422L541 447.624Z" fill="#F1B092"/>
<path fill-rule="evenodd" clip-rule="evenodd" d="M539 244.066L539.354 436L559.644 435.988L566 220L539 244.066Z" fill="#3594C5"/>
<path fill-rule="evenodd" clip-rule="evenodd" d="M558 444.469C558 443.931 557.395 443.629 557.001 443.979C555.601 445.228 552.634 447.002 547.531 446.265C541.475 445.389 541.855 441 541.855 441L522.676 446.984L522.6 447.01C519.315 448.156 516.676 450.725 515.372 454.051L515 455H558V444.469Z" fill="#2F383D"/>
<path fill-rule="evenodd" clip-rule="evenodd" d="M515 458H558V455H515V458Z" fill="#0A090C"/>
<path fill-rule="evenodd" clip-rule="evenodd" d="M539.89 211L539 244.252L598.9 245L599 211.754L539.89 211Z" fill="#3594C5"/>
<path fill-rule="evenodd" clip-rule="evenodd" d="M553 245.687H578V244.313H553V245.687Z" fill="#0D8CC1"/>
<path fill-rule="evenodd" clip-rule="evenodd" d="M547.95 215.072C547.95 215.074 547.963 215.254 547.977 215.593C547.992 215.931 548.006 216.421 548.006 217.024C548.008 219.364 547.783 223.404 546.519 226.817C545.888 228.524 545.002 230.066 543.787 231.175C542.57 232.285 541.038 232.983 539 233.027L539.02 234C541.287 233.96 543.095 233.146 544.465 231.889C546.522 229.999 547.632 227.172 548.255 224.384C548.876 221.592 549 218.825 549 217.024C549 215.787 548.941 215.01 548.941 215L547.95 215.072Z" fill="#0D8CC1"/>
<path fill-rule="evenodd" clip-rule="evenodd" d="M570.811 216L570 244.975L571.189 245L572 216.024" fill="#0D8CC1"/>
<path fill-rule="evenodd" clip-rule="evenodd" d="M562.81 216L562 244.975L563.19 245L564 216.024" fill="#0D8CC1"/>
<path fill-rule="evenodd" clip-rule="evenodd" d="M492 184.956C492 184.956 489.755 169.797 478.064 169L479.594 176.393L472.545 175.836C472.545 175.836 468.077 175.878 466.791 177.746C465.64 179.423 456.913 195.809 492 191.179V184.956Z" fill="#EBAF91"/>
<path fill-rule="evenodd" clip-rule="evenodd" d="M462 164L465.619 190.745C465.872 192.61 467.476 194 469.372 194H481.991C483.904 194 485.519 192.58 485.75 190.695L489 164H462Z" fill="#534A67"/>
<path fill-rule="evenodd" clip-rule="evenodd" d="M491 164H460V162.004C460 160.896 460.916 160 462.049 160H488.951C490.082 160 491 160.896 491 162.004V164Z" fill="#C3C5CC"/>
<path fill-rule="evenodd" clip-rule="evenodd" d="M487 160H464V157.736C464 156.777 464.787 156 465.756 156H485.246C486.215 156 487 156.777 487 157.736V160Z" fill="#C3C5CC"/>
<path fill-rule="evenodd" clip-rule="evenodd" d="M482 176.001C482 179.313 479.314 182 476.001 182C472.686 182 470 179.313 470 176.001C470 172.687 472.686 170 476.001 170C479.314 170 482 172.687 482 176.001Z" fill="#FFFFFE"/>
<path fill-rule="evenodd" clip-rule="evenodd" d="M463.053 189C462.341 189 461.748 188.556 461.688 187.976L460.005 172.218C459.935 171.563 460.567 171 461.371 171H463.053C465.232 171 467 172.444 467 174.226V185.773C467 187.555 465.232 189 463.053 189Z" fill="#EBAF91"/>
<path fill-rule="evenodd" clip-rule="evenodd" d="M554.399 129.673C554.399 129.673 566.442 139.018 546.48 186.404C546.48 186.404 538.708 203.219 533.962 203.827C526.19 204.824 504.28 201.454 490.632 195.132L490 178.388L525.806 179.996L527.079 143.311C527.505 141.362 528.472 133.416 532.107 129.167C532.107 129.167 540.956 119.463 554.399 129.673Z" fill="#4867A2"/>
<path fill-rule="evenodd" clip-rule="evenodd" d="M526 179.956L526.03 179.975C526.378 180.191 529.584 182.271 532.084 187L533 186.468C530.2 181.179 526.567 179.032 526.514 179L526 179.956Z" fill="#3A629F"/>
<path fill-rule="evenodd" clip-rule="evenodd" d="M571.27 114.112L603.609 128.395C605.91 129.413 607.269 131.81 606.955 134.295L597.733 214.102C597.733 214.102 567.688 219.004 538.471 213.053L531.055 135.506C530.761 132.977 531.66 130.453 533.49 128.675L553.433 114L571.27 114.112Z" fill="#C3C5CC"/>
<path fill-rule="evenodd" clip-rule="evenodd" d="M552 115.006L552.08 129.795C552.081 129.975 552.193 130.139 552.362 130.208C552.53 130.278 552.727 130.241 552.857 130.114L559.636 123.512L569.097 130.903C569.207 130.989 569.352 131.02 569.489 130.987C569.625 130.954 569.74 130.86 569.796 130.733L576 117.002L575.168 116.634L569.203 129.836L559.886 122.558C559.705 122.417 559.446 122.431 559.282 122.591L552.987 128.721L552.912 115L552 115.006Z" fill="#A3AAB9"/>
<path fill-rule="evenodd" clip-rule="evenodd" d="M576.181 116C576.181 116 568.517 145.419 568 189.716C568 189.716 568.895 219.943 569.553 227.196C569.553 227.196 608.747 228.487 609.865 227.797C610.984 227.105 604.762 129.08 604.762 129.08C604.762 129.08 581.048 116.35 576.181 116Z" fill="#4867A2"/>
<path fill-rule="evenodd" clip-rule="evenodd" d="M576.209 115.598C576.209 115.598 576.307 115.735 576.484 115.999C577.732 117.842 582.891 125.794 584.984 133.59L585.451 133.455L585.087 133.121L579.881 139.266L585.064 146.341L585.451 146.033L584.995 145.857C584.988 145.878 575.483 172.556 570 208.844L570.96 209C573.694 190.907 577.432 175.203 580.486 164.027C582.013 158.438 583.37 153.981 584.344 150.923C584.831 149.393 585.221 148.213 585.49 147.418C585.761 146.621 585.907 146.211 585.907 146.21L586 145.949L581.139 139.313L585.99 133.583L585.919 133.318C583.449 124.149 577.008 115.025 576.993 115L576.209 115.598Z" fill="#3A629F"/>
<path fill-rule="evenodd" clip-rule="evenodd" d="M552.689 114C552.689 114 553.988 201.211 555 227C555 227 535.71 226.401 533.526 223.741C533.526 223.741 537.344 185.755 530 134.415L532.353 128.944L552.689 114Z" fill="#4867A2"/>
<path fill-rule="evenodd" clip-rule="evenodd" d="M549.695 118C549.686 118.015 544.257 126.314 540.145 136.13L540 136.48L544.709 140.029L540.072 147.97L540.126 148.166C540.126 148.167 540.294 148.789 540.59 149.913C541.626 153.846 544.219 163.897 546.55 174.675C548.884 185.447 550.951 196.967 550.948 203.745C550.948 204.169 550.94 204.574 550.925 204.959L551.975 205C551.992 204.599 552 204.181 552 203.745C551.997 195.807 549.28 181.887 546.568 169.904C543.856 157.928 541.144 147.917 541.144 147.914L540.634 148.04L541.093 148.284L546.064 139.77L540.96 135.922L540.634 136.317L541.123 136.504C543.158 131.645 545.525 127.148 547.384 123.867C548.314 122.228 549.115 120.893 549.685 119.968C550.253 119.042 550.587 118.534 550.588 118.533L549.695 118Z" fill="#3A629F"/>
<path fill-rule="evenodd" clip-rule="evenodd" d="M532 153.105C532.001 153.109 532.131 154.482 532.328 156.832C532.919 163.883 534.101 179.679 534.101 193.153C534.101 195.155 534.075 197.104 534.017 198.965L534.916 199C534.974 197.125 535 195.165 535 193.153C535 175.106 532.896 153.009 532.895 153L532 153.105Z" fill="#3A629F"/>
<path fill-rule="evenodd" clip-rule="evenodd" d="M561.348 180L635 207.866L630.391 259L558 231.4L561.348 180Z" fill="#433A56"/>
<path fill-rule="evenodd" clip-rule="evenodd" d="M567.445 178L639 206.352L630.979 260L558 232.208L567.445 178Z" fill="#FFFFFE"/>
<path fill-rule="evenodd" clip-rule="evenodd" d="M570.647 177L642 205.26L630.776 260L558 232.3L570.647 177Z" fill="#534A67"/>
<path fill-rule="evenodd" clip-rule="evenodd" d="M604.84 128C604.84 128 611.57 130.085 632.305 174.855C632.305 174.855 636.767 188.721 635.884 193.259C633.873 203.615 611.279 240 611.279 240L599.17 228.536L612.108 188.511L595.328 153.432C595.328 153.432 583.351 131.631 604.84 128Z" fill="#4867A2"/>
<path fill-rule="evenodd" clip-rule="evenodd" d="M595.165 131C595.108 131.048 591.003 134.745 591 142.045C591 145.209 591.775 149.035 593.961 153.502C601.093 168.073 611.006 188.327 611.006 188.327L611.458 188.109L610.981 187.954L597.839 227.689L598.795 228L612 188.073L611.911 187.892C611.911 187.892 601.999 167.638 594.866 153.066C592.737 148.715 592.008 145.046 592.006 142.045C592.008 138.588 592.977 136.007 593.942 134.286C594.424 133.427 594.906 132.784 595.263 132.358C595.442 132.147 595.59 131.988 595.691 131.885L595.805 131.772L595.838 131.74L595.165 131Z" fill="#3A629F"/>
<path fill-rule="evenodd" clip-rule="evenodd" d="M611.638 189.605L611.651 189.595C611.835 189.454 613.785 188.001 617.464 188.001C619.587 188.001 622.292 188.483 625.582 190L626 189.092C622.594 187.52 619.74 187 617.464 187C613.249 186.999 611.058 188.785 611 188.834L611.638 189.605Z" fill="#3A629F"/>
<path fill-rule="evenodd" clip-rule="evenodd" d="M599.342 229L594.06 236.497C594.06 236.497 586.49 238.162 586.134 242.295C585.776 246.428 585.445 253 594.949 256.564C604.452 260.126 606.268 240.711 606.268 240.711L608 237.147L599.342 229Z" fill="#EBAF91"/>
<path fill-rule="evenodd" clip-rule="evenodd" d="M538.003 81.3083C537.895 84.8966 540.719 87.8923 544.308 87.997C547.896 88.1048 550.892 85.2815 550.997 81.6931C551.105 78.1047 548.281 75.109 544.691 75.0028C541.102 74.8981 538.108 77.7214 538.003 81.3083Z" fill="#C98271"/>
<path fill-rule="evenodd" clip-rule="evenodd" d="M540.752 61.0381C540.752 61.0381 529.2 78.8076 546.637 80L551 70.7081L547.161 61L540.752 61.0381Z" fill="#0C1C66"/>
<path fill-rule="evenodd" clip-rule="evenodd" d="M573.228 86L553.27 99.861L553 115.83L560.272 124L576.534 117.706L577 88.4814L573.228 86Z" fill="#E4AA8D"/>
<path fill-rule="evenodd" clip-rule="evenodd" d="M553 111.996C553 111.996 578.44 112.895 574.606 87L568.254 91.318L553.278 103.073L553 111.996Z" fill="#C98271"/>
<path fill-rule="evenodd" clip-rule="evenodd" d="M557.876 105.973L558.525 105.992C568.125 106.272 576.135 98.8094 576.42 89.324L576.998 67.2489C577.072 64.794 575.117 62.7436 572.633 62.6704L549.755 62.0035C545.318 61.8745 541.614 65.3246 541.482 69.7112L541.008 88.2892C540.724 97.7762 548.276 105.693 557.876 105.973Z" fill="#E4AA8D"/>
<path fill-rule="evenodd" clip-rule="evenodd" d="M588.904 64.4406C587.855 55.841 580.217 56.3054 580.217 56.3054L580.213 56.317C577.371 50.851 569.516 45.8901 560.311 46.0019C547.842 46.1528 536.435 52.7756 534.307 59.2808C532.177 65.7875 541.836 65.7468 541.836 65.7468C541.836 65.7468 555.888 67.043 567.208 66.4363C566.5 71.207 566.738 78.8313 575.264 79.438L576.776 94C576.776 94 590.261 75.5874 588.904 64.4406Z" fill="#0C1C66"/>
<path fill-rule="evenodd" clip-rule="evenodd" d="M571.003 83.3091C570.895 86.8955 573.719 89.8909 577.309 89.9971C580.898 90.1033 583.892 87.2803 583.997 83.6924C584.105 80.1044 581.281 77.109 577.692 77.0028C574.102 76.8982 571.108 79.7211 571.003 83.3091Z" fill="#E4AA8D"/>
<path fill-rule="evenodd" clip-rule="evenodd" d="M556.002 81.5714C556.041 82.3977 556.745 83.0375 557.572 82.9983C558.399 82.9575 559.039 82.2551 558.998 81.4272C558.961 80.6008 558.258 79.9611 557.428 80.0018C556.601 80.041 555.962 80.7435 556.002 81.5714Z" fill="#191B1F"/>
<path fill-rule="evenodd" clip-rule="evenodd" d="M544.002 81.5713C544.041 82.3992 544.745 83.0389 545.572 82.9982C546.4 82.959 547.039 82.2549 546.998 81.4286C546.96 80.6007 546.258 79.9625 545.428 80.0017C544.601 80.0409 543.962 80.7449 544.002 81.5713Z" fill="#191B1F"/>
<path fill-rule="evenodd" clip-rule="evenodd" d="M549.475 81.5429L549 87.7168V87.8213C549.007 87.8805 549.045 88.3838 549.377 88.9307C549.702 89.4839 550.382 90.0138 551.402 89.9997C551.759 89.9997 552.157 89.9421 552.607 89.8159C552.883 89.7379 553.053 89.4169 552.985 89.0975C552.918 88.778 552.638 88.5833 552.363 88.6612C551.979 88.7702 551.662 88.8123 551.402 88.8123C550.658 88.7983 550.394 88.51 550.217 88.2435L550.055 87.8555L550.029 87.7355L550.026 87.7106L549.903 87.7293L550.026 87.7168V87.7106L549.903 87.7293L550.026 87.7168L549.513 87.7683L550.026 87.8213L550.502 81.6473C550.526 81.3201 550.317 81.0318 550.033 81.0022C549.751 80.9742 549.5 81.2157 549.475 81.5429Z" fill="#C98271"/>
<path fill-rule="evenodd" clip-rule="evenodd" d="M561.879 76.9912L561.615 77L555.213 76.5773C554.497 76.5301 553.957 75.9159 554.003 75.2045C554.052 74.4945 554.665 73.9584 555.385 74.0025L561.787 74.4253C562.503 74.4724 563.043 75.0866 562.997 75.7981C562.954 76.4197 562.477 76.9087 561.879 76.9912Z" fill="#191B1F"/>
<path fill-rule="evenodd" clip-rule="evenodd" d="M547.796 76.9906L547.512 77L543.304 76.7287C542.535 76.6772 541.954 76.0286 542.003 75.2754C542.055 74.5223 542.721 73.9531 543.487 74.003L547.697 74.2759C548.466 74.3258 549.048 74.976 548.997 75.7276C548.954 76.3872 548.438 76.9049 547.796 76.9906Z" fill="#191B1F"/>
<path fill-rule="evenodd" clip-rule="evenodd" d="M549.678 78.5H549.355C549.355 80.3944 548.588 82.1071 547.348 83.3485C546.106 84.5898 544.394 85.3568 542.5 85.3568C540.606 85.3568 538.894 84.5898 537.652 83.3485C536.41 82.1071 535.645 80.3944 535.645 78.5C535.645 76.6056 536.41 74.8929 537.652 73.6515C538.894 72.4102 540.606 71.6432 542.5 71.6432C544.394 71.6432 546.106 72.4102 547.348 73.6515C548.588 74.8929 549.355 76.6056 549.355 78.5H550C550 74.3566 546.642 71 542.5 71C538.358 71 535 74.3566 535 78.5C535 82.642 538.358 86 542.5 86C546.642 86 550 82.642 550 78.5H549.678Z" fill="#FFFFFE"/>
<path fill-rule="evenodd" clip-rule="evenodd" d="M563.575 73.4235L563.348 73.6515C564.687 74.9914 565.355 76.7436 565.357 78.5C565.355 80.2564 564.687 82.0086 563.348 83.3485C562.007 84.6883 560.255 85.3568 558.499 85.3568C556.744 85.3568 554.991 84.6883 553.652 83.3485C552.312 82.0086 551.643 80.255 551.643 78.5C551.643 76.7436 552.312 74.9914 553.652 73.6515C554.991 72.3117 556.744 71.6432 558.499 71.6432C560.255 71.6432 562.009 72.3117 563.348 73.6515L563.575 73.4235L563.803 73.1969C562.339 71.7333 560.417 71 558.499 71C556.58 71 554.659 71.7333 553.197 73.1969C551.732 74.6606 550.999 76.5817 551 78.5C550.999 80.4183 551.732 82.3394 553.197 83.8031C554.659 85.2667 556.58 86 558.499 86C560.417 86 562.339 85.2667 563.803 83.8031C565.267 82.3394 566 80.4183 566 78.5C566 76.5817 565.267 74.6606 563.803 73.1969L563.575 73.4235Z" fill="#FFFFFE"/>
<path fill-rule="evenodd" clip-rule="evenodd" d="M567 79.457H574V78.543H567V79.457Z" fill="#FFFFFE"/>
<path fill-rule="evenodd" clip-rule="evenodd" d="M549 79.457H551V78.543H549V79.457Z" fill="#FFFFFE"/>
<path fill-rule="evenodd" clip-rule="evenodd" d="M580.591 81.2938C580.557 81.2853 579.613 81.0014 578.417 81C577.5 81.0014 576.401 81.1689 575.497 81.8444C574.589 82.5228 573.992 83.6894 574 85.4067V85.4663C574.005 85.7644 574.273 86.0042 574.598 85.9999C574.925 85.9971 575.187 85.7516 575.183 85.4521V85.4067C575.189 83.8938 575.663 83.1274 576.249 82.6804C576.838 82.2319 577.651 82.0815 578.417 82.0829C578.911 82.0829 579.373 82.1439 579.706 82.2049C579.872 82.2361 580.007 82.2674 580.098 82.2887L580.199 82.3156L580.227 82.3227C580.537 82.415 580.87 82.2589 580.971 81.975C581.072 81.6912 580.901 81.386 580.591 81.2938Z" fill="#C98271"/>
<path fill-rule="evenodd" clip-rule="evenodd" d="M576.474 82.2281L576.484 82.0203L576.471 82.2281H576.474L576.484 82.0203L576.471 82.2281C576.484 82.2265 576.911 82.2796 577.278 82.5646C577.642 82.8641 577.979 83.2893 577.992 84.3601C577.992 84.6226 577.968 84.9237 577.913 85.2667C577.859 85.6 578.036 85.9237 578.309 85.9881C578.581 86.0541 578.847 85.8384 578.901 85.505C578.968 85.0928 578.998 84.7128 579 84.3601C579.013 82.8593 578.374 81.9076 577.756 81.4825C577.142 81.0429 576.577 81.0075 576.532 81.001C576.255 80.9817 576.017 81.2409 576.001 81.5791C575.984 81.9173 576.196 82.2087 576.474 82.2281Z" fill="#C98271"/>
<path fill-rule="evenodd" clip-rule="evenodd" d="M547.003 91H559C559 91 557.391 95.3212 551.865 94.9809C546.711 94.6637 547.003 91 547.003 91Z" fill="#FFFFFE"/>
</svg>
