<?xml version="1.0" encoding="UTF-8" standalone="no"?>
<!-- Created with Sodipodi ("http://www.sodipodi.com/") -->
<svg xmlns:inkscape="http://www.inkscape.org/namespaces/inkscape" xmlns:rdf="http://www.w3.org/1999/02/22-rdf-syntax-ns#" xmlns="http://www.w3.org/2000/svg" xmlns:cc="http://creativecommons.org/ns#" xmlns:dc="http://purl.org/dc/elements/1.1/" xmlns:sodipodi="http://sodipodi.sourceforge.net/DTD/sodipodi-0.dtd" xmlns:svg="http://www.w3.org/2000/svg" xmlns:ns1="http://sozi.baierouge.fr" id="svg548" inkscape:version="0.48.3.1 r9886" viewBox="0 0 293.12 175" sodipodi:version="0.33pre" version="1.1" sodipodi:docname="_svgclean2.svg" xmlns:xlink="http://www.w3.org/1999/xlink">
  <sodipodi:namedview id="base" inkscape:window-x="0" inkscape:window-y="0" inkscape:window-height="645" inkscape:window-maximized="0" inkscape:zoom="0.22425739" showgrid="false" inkscape:current-layer="svg548" inkscape:cx="372.04722" inkscape:cy="-351.17851" inkscape:window-width="674"/>
  <path id="path551" style="fill-rule:evenodd;stroke-width:1pt;fill:#00cf00" inkscape:connector-curvature="0" d="m0 0 146.56 87.501-146.56 87.499z"/>
  <path id="path552" style="fill-rule:evenodd;stroke-width:1pt;fill:#00cf00" inkscape:connector-curvature="0" d="m293.12 0-146.56 87.501 146.56 87.499z"/>
  <path id="path556" style="fill-rule:evenodd;stroke-width:1pt;fill:#ff0000" inkscape:connector-curvature="0" d="m0 0 146.56 87.501 146.56-87.501z"/>
  <path id="path557" style="fill-rule:evenodd;stroke-width:1pt;fill:#ff0000" inkscape:connector-curvature="0" d="m0 175 146.56-87.499 146.56 87.499z"/>
  <path id="path558" style="fill-rule:evenodd;stroke-width:1pt;fill:#ffffff" inkscape:connector-curvature="0" d="m293.12 0h-27.31l-265.81 158.7v16.3h27.309l265.81-158.7z"/>
  <path id="path571" sodipodi:rx="50.604351" sodipodi:ry="50.604351" style="fill-rule:evenodd;fill:#ffffff" sodipodi:type="arc" d="m196.84 88.136a50.604 50.604 0 1 1 -101.21 0 50.604 50.604 0 1 1 101.21 0z" transform="translate(.32782 -.63583)" sodipodi:cy="88.135818" sodipodi:cx="146.23465"/>
  <path id="path566" style="fill-rule:evenodd;stroke-width:1pt;fill:#ffffff" inkscape:connector-curvature="0" d="m0 0v16.305l265.81 158.7h27.31v-16.3l-265.81-158.7z"/>
  <polygon id="polygon576" style="fill-rule:evenodd;stroke:#00de00;stroke-width:1pt;fill:#ff0000" sodipodi:type="star" sodipodi:sides="6" sodipodi:r1="11.515756" sodipodi:r2="6.7942958" sodipodi:arg1="0.52558392" sodipodi:arg2="1.0491827" transform="translate(22.243 -37.455)" inkscape:randomized="0" d="m 134.28087,105.86726 -6.57603,0.1131 -3.40832,5.62497 -3.38596,-5.63845 -6.57553,-0.13921 3.19007,-5.75156 -3.16721,-5.764175 6.57603,-0.1131 3.40832,-5.624968 3.38596,5.638455 6.57553,0.139209 -3.19007,5.751559 z" sodipodi:cy="100.0896" sodipodi:cx="124.31938" inkscape:rounded="0" inkscape:flatsided="false" points="134.28 105.87 127.7 105.98 124.3 111.6 120.91 105.97 114.34 105.83 117.52 100.08 114.36 94.312 120.93 94.199 124.34 88.574 127.73 94.212 134.3 94.352 131.11 100.1"/>
  <polygon id="polygon577" style="fill-rule:evenodd;stroke:#00de00;stroke-width:1pt;fill:#ff0000" sodipodi:type="star" sodipodi:sides="6" sodipodi:r1="11.515756" sodipodi:r2="6.7942958" sodipodi:arg1="0.52558392" sodipodi:arg2="1.0491827" transform="translate(.19922 .69731)" inkscape:randomized="0" d="m 134.28087,105.86726 -6.57603,0.1131 -3.40832,5.62497 -3.38596,-5.63845 -6.57553,-0.13921 3.19007,-5.75156 -3.16721,-5.764175 6.57603,-0.1131 3.40832,-5.624968 3.38596,5.638455 6.57553,0.139209 -3.19007,5.751559 z" sodipodi:cy="100.0896" sodipodi:cx="124.31938" inkscape:rounded="0" inkscape:flatsided="false" points="134.28 105.87 127.7 105.98 124.3 111.6 120.91 105.97 114.34 105.83 117.52 100.08 114.36 94.312 120.93 94.199 124.34 88.574 127.73 94.212 134.3 94.352 131.11 100.1"/>
  <polygon id="polygon578" style="fill-rule:evenodd;stroke:#00de00;stroke-width:1pt;fill:#ff0000" sodipodi:type="star" sodipodi:sides="6" sodipodi:r1="11.515756" sodipodi:r2="6.7942958" sodipodi:arg1="0.52558392" sodipodi:arg2="1.0491827" transform="translate(44.827 .69731)" inkscape:randomized="0" d="m 134.28087,105.86726 -6.57603,0.1131 -3.40832,5.62497 -3.38596,-5.63845 -6.57553,-0.13921 3.19007,-5.75156 -3.16721,-5.764175 6.57603,-0.1131 3.40832,-5.624968 3.38596,5.638455 6.57553,0.139209 -3.19007,5.751559 z" sodipodi:cy="100.0896" sodipodi:cx="124.31938" inkscape:rounded="0" inkscape:flatsided="false" points="134.28 105.87 127.7 105.98 124.3 111.6 120.91 105.97 114.34 105.83 117.52 100.08 114.36 94.312 120.93 94.199 124.34 88.574 127.73 94.212 134.3 94.352 131.11 100.1"/>
  <metadata id="metadata14">
    <rdf:RDF>
      <cc:Work>
        <dc:format>image/svg+xml</dc:format>
        <dc:type rdf:resource="http://purl.org/dc/dcmitype/StillImage"/>
        <cc:license rdf:resource="http://creativecommons.org/licenses/publicdomain/"/>
        <dc:publisher>
          <cc:Agent rdf:about="http://openclipart.org/">
            <dc:title>Openclipart</dc:title>
          </cc:Agent>
        </dc:publisher>
      </cc:Work>
      <cc:License rdf:about="http://creativecommons.org/licenses/publicdomain/">
        <cc:permits rdf:resource="http://creativecommons.org/ns#Reproduction"/>
        <cc:permits rdf:resource="http://creativecommons.org/ns#Distribution"/>
        <cc:permits rdf:resource="http://creativecommons.org/ns#DerivativeWorks"/>
      </cc:License>
    </rdf:RDF>
  </metadata>
</svg>
